<svg xmlns="http://www.w3.org/2000/svg" height="205.85" width="658.19"><path d="M598.32 185.58H59.87c-30.72 0-55.86-25.14-55.86-55.86V85.86C4.01 55.14 29.15 30 59.87 30h538.45c30.72 0 55.86 25.14 55.86 55.86v43.86c0 30.72-25.14 55.86-55.86 55.86" fill="#fff"/><path d="M598.32 185.58H59.87c-30.72 0-55.86-25.14-55.86-55.86V85.86C4.01 55.14 29.15 30 59.87 30h538.45c30.72 0 55.86 25.14 55.86 55.86v43.86c0 30.72-25.14 55.86-55.86 55.86z" fill="none" stroke="#459adb" stroke-width="8.02" stroke-miterlimit="10"/><path d="M86.2 38.49h40.95V25.75H86.2V38.5" fill="#fff"/><path d="M60.99 85.45l36.3-36.31a28.76 28.76 0 0 1-10.33-20.01zm65.56 65.73a34.51 34.51 0 0 0-5.4-7.63l-2.65-2.83 55.4-55.42-1.56-1.56a31.8 31.8 0 0 1-10.04 1.6 31.83 31.83 0 0 1-31.52-27.3 31.78 31.78 0 0 1 1.25-14.62l-1.57-1.56-82.25 82.24 1.57 1.57a32.17 32.17 0 0 1 10.04-1.61c7.03 0 13.7 2.26 19.3 6.55l4.76 3.64-5.17 3a34.68 34.68 0 0 0-7.63 6.02l-2.12 2.22-2.7-1.46a13.48 13.48 0 0 0-16.04 2.32l-2.83 2.83-24.14-24.14 1.28-2.79L78.46 5.33l28.8 13.28-1.68 3.64a11.2 11.2 0 0 0 4.36 14.24l20.53-20.53 25.08 25.07-2.84 2.84a13.58 13.58 0 0 0 9.6 23.16c3.62 0 7.03-1.4 9.59-3.97l2.84-2.84L199.8 85.3l-70.73 70.73-2.53-4.85" fill="#4c5056"/><path d="M74.04 66.72l11.91-25.84a32.72 32.72 0 0 0 5.6 8.33L74.04 66.72zM76.49 0l-3.36 7.3L20.9 120.56l-.11.24-2.36 5.08 3.97 3.96.33.33 19 19 5.67 5.68 5.68-5.67a9.5 9.5 0 0 1 11.28-1.63l5.4 2.93 4.23-4.44a31 31 0 0 1 6.75-5.32l10.34-6.03-9.5-7.27a35.5 35.5 0 0 0-23.68-7.32l62.7-62.7 5.3-5.3.57-.57a36.04 36.04 0 0 0 .35 7.07 35.65 35.65 0 0 0 10.12 20.23 35.66 35.66 0 0 0 27.3 10.46l-45.83 45.84-5.48 5.48 5.3 5.67c1.89 2.02 3.5 4.3 4.77 6.75l5.06 9.7 7.73-7.74 64.03-64.03 5.67-5.67-5.67-5.67-19.4-19.4-5.68-5.68-5.67 5.67a9.5 9.5 0 0 1-6.75 2.8 9.5 9.5 0 0 1-6.76-2.8 9.5 9.5 0 0 1-2.8-6.76c0-2.55 1-4.95 2.8-6.75l5.67-5.68-5.67-5.67-19.4-19.4-5.68-5.67-5.67 5.67-15 15a7.16 7.16 0 0 1-.57-7.03l3.36-7.28-7.29-3.36-21.52-9.93L76.49 0zM47.94 104.17l55.59-55.6A24.9 24.9 0 0 1 90.9 26.12l-5.75-2.65-37.21 80.7m32.48-93.52l21.52 9.92a15.18 15.18 0 0 0 8.87 20.72l19.66-19.66 19.4 19.4a17.58 17.58 0 0 0 24.86 24.86l19.4 19.4-64.02 64.04a38.68 38.68 0 0 0-6.04-8.52L179.6 85.3l-6.24-6.23a27.82 27.82 0 0 1-11.04 2.26 27.69 27.69 0 0 1-25.4-16.44 27.57 27.57 0 0 1-2.16-7.42 27.82 27.82 0 0 1 1.95-15.05l-.9-.92-5.33-5.32-10.25 10.26-5.3 5.3-69.82 69.82-2.55 2.54 2.98 2.98 3.25 3.26a28.03 28.03 0 0 1 11.05-2.27c6.18 0 12.04 2.03 16.87 5.72a38.7 38.7 0 0 0-8.5 6.71 17.5 17.5 0 0 0-20.8 3l-19-19-.33-.33.11-.25L80.42 10.65" fill="#fff"/><path d="M90.71 179.27l21.84-21.86-1.65-1.64L90.7 176l-9.55-9.6-1.63 1.64zm3.59 22.57a36.36 36.36 0 0 1-36.32-36.31A36.36 36.36 0 0 1 94.3 129.2a36.36 36.36 0 0 1 36.31 36.32 36.36 36.36 0 0 1-36.31 36.31" fill="#459adb"/><path d="M94.3 125.2a40.37 40.37 0 0 0-40.33 40.33 40.37 40.37 0 0 0 40.33 40.32 40.37 40.37 0 0 0 40.32-40.32A40.37 40.37 0 0 0 94.3 125.2zm-3.6 45.13l-9.55-9.61-7.3 7.33 16.86 16.9 27.5-27.54-7.31-7.32-20.2 20.24m3.6-37.11a32.3 32.3 0 1 1 0 64.61 32.3 32.3 0 0 1 0-64.61" fill="#fff"/><path d="M225.14 158.1h-6.06l-11.1-31.37h6.9l5.9 18.15a82 82 0 0 1 1.47 5.15 73.7 73.7 0 0 1 1.42-5.15l5.76-18.15h6.82l-11.1 31.37m16.01 0v-31.37h21.67v6.14H247.4v5.42h8.97v6.1h-8.97v7.57h16.1v6.14h-22.34m41.61-25.27h-8.16v8.06h8.16c2.9 0 4.46-1.34 4.46-4.08 0-2.82-1.7-3.98-4.46-3.98zm3.7 25.27l-5.57-11.3h-6.29v11.3h-6.24v-31.37h14.54c5.88 0 10.74 3.27 10.74 9.95 0 4.7-2 7.66-5.97 9.23l5.97 12.2h-7.18m13.3-.01v-31.37H306v31.37h-6.24m19.19-25.23v5.92h9.4v6.1h-9.4v13.21h-6.25v-31.37h22.35v6.14h-16.1m21.18 25.23v-31.37h6.25v31.37h-6.25m12.94 0v-31.37h21.67v6.14h-15.43v5.42h8.97v6.1h-8.97v7.57h16.1v6.14h-22.34m37.64-25.27h-3.3V152h3.08c6.56 0 9.55-3.86 9.55-9.6 0-6.4-2.73-9.58-9.33-9.58zm-.22 25.27h-9.32v-31.37h9.77c8.92 0 15.52 4.21 15.52 15.69 0 11.02-7.94 15.68-15.97 15.68m45.68-25.18v25.18h-6.25v-25.18h-8.96v-6.19h24.17v6.19h-8.96m14.53 25.18v-31.37h6.25v31.37h-6.24m30.77-22.23a5.93 5.93 0 0 0-5.7-3.4c-4.7 0-7.37 4.12-7.37 9.95 0 5.64 2.72 9.95 7.4 9.95 2.82 0 4.47-1.22 6.12-4l5.26 3.14c-2.14 4.44-5.89 7.08-11.55 7.08-8.16 0-13.65-6.27-13.65-16.17 0-9.55 5.71-16.18 13.87-16.18 5.89 0 9.46 2.87 11.42 6.95l-5.8 2.68m29.98 22.23l-8.48-15.15-5 5.92v9.23h-6.24v-31.37H498v8.92c0 1.16-.05 3.99-.1 4.97.45-.71 1.61-2.15 2.46-3.18l8.74-10.7h7.54l-9.14 10.84 11.46 20.52h-7.5m11.5 0v-31.37h21.68v6.14h-15.43v5.42h8.96v6.1h-8.96v7.57h16.1v6.14h-22.35m40.42-25.18v25.18h-6.25v-25.18h-8.96v-6.19h24.17v6.19h-8.96m23.55 25.68c-5.22 0-9.77-2.2-12.14-5.7l4.51-4.03a10.1 10.1 0 0 0 7.98 3.58c3.7 0 5.44-1.03 5.44-3.4 0-2.02-1.07-2.91-6.95-4.26-5.76-1.34-9.77-3.18-9.77-9.36 0-5.7 5-9.2 11.15-9.2a14.9 14.9 0 0 1 11.37 4.94l-4.5 4.39c-2-2.06-4.24-3.23-7.1-3.23-3.34 0-4.45 1.44-4.45 2.83 0 1.97 1.33 2.6 6.28 3.76 4.96 1.17 10.44 2.87 10.44 9.68 0 5.96-3.75 10-12.26 10" fill="#459adb"/><path d="M459.34 103.39c7.5 0 9.8-5.16 11.37-11.36h-3.5c-4.87 0-12.93.82-12.93 7.32 0 2.68 2.55 4.04 5.06 4.04m9.8.51H469c-3.43 4.33-6.86 6.8-12.4 6.8-6.95 0-11.88-3.88-11.88-10.98 0-12.71 14.2-13.68 23.62-13.68h3.5c.31-1.05.31-2.17.31-3.3 0-3.87-4.2-4.99-7.7-4.99-4.43 0-8.67 1.12-12.63 2.97l1.41-7.98a39.35 39.35 0 0 1 13.08-2.32c7.71 0 14.94 2.85 14.94 11.88 0 5.16-3.8 20.25-4.7 27.5h-8.44l1.04-5.9M209.57 71.28h7.23l1.73-7.9 10.76-3.53-2.46 11.43h8.95l-1.56 7.32h-8.98l-3.65 16.82c-.23.9-.45 2.24-.45 3.74 0 2.32 1.57 3.73 3.82 3.73 1.78 0 3.59-.37 4.85-.87l-1.71 7.74c-1.74.39-3.67.9-5.39.9-6.79 0-11.58-2.66-11.58-10.08 0-2.98.6-5.9 1.27-8.96l2.84-13.02h-7.27l1.6-7.32m34-16.58h10l-2.08 9.56h-10.03zm-3.67 16.58h10l-8.2 38.48h-10.02l8.22-38.48m40.27 8.82a13.73 13.73 0 0 0-7.34-1.94c-8 0-12.49 7.48-12.49 14.72 0 5 1.67 10.02 8.54 10.02 2.45 0 5.52-.68 8.14-1.95l-1.12 7.93c-3.07 1.49-6.36 1.77-9.64 1.77-9.94 0-16.37-6.63-16.37-16.57 0-13.46 8.89-23.69 22.7-23.69 3.74 0 7.33.66 10.04 1.5l-2.46 8.21m10.96-26.36h10.02l-6.66 31.53h.16l13.96-13.99h13l-18.45 17.57 11.58 20.9h-11.27l-9.95-20.38h-.14l-4.33 20.39h-9.79l11.87-56.02m66.6 17.54h7.24l1.72-7.9 10.76-3.53-2.47 11.43h8.97l-1.55 7.32h-9l-3.66 16.82c-.2.9-.44 2.24-.44 3.74 0 2.32 1.57 3.73 3.81 3.73 1.79 0 3.58-.37 4.85-.87l-1.72 7.74c-1.7.39-3.65.9-5.37.9-6.8 0-11.58-2.66-11.58-10.08 0-2.98.6-5.9 1.27-8.96l2.84-13.02h-7.26l1.59-7.32" fill="#4c5056"/><path d="M354.37 85.03c0-9.8-6.26-14.64-15.77-14.64-12.62 0-21.9 11.51-21.9 23.47 0 11.43 7.47 16.8 18.54 16.8 4.1 0 8.37-.97 12.24-2.15l1.28-7.93a28.06 28.06 0 0 1-11.8 2.76c-6.4 0-10.14-2.26-10.64-8.32 0-.35-.06-.7-.06-1.07v-.34h.03c.02-2.61.6-5.2 1.62-7.6 1.92-4.92 4.65-8.29 10.54-8.29 4.18 0 6.35 2.31 6.35 6.42 0 .9-.07 1.72-.22 2.62h-13.7a22.81 22.81 0 0 0-1.06 6.85h23.58c.59-2.82.97-5.66.97-8.58m33.91-9.49l.8-4.26h9.35l-.9 5.15h.15a14.1 14.1 0 0 1 11.81-6.04c4.55 0 9.27 2.69 9.79 7.33h.15c2.53-5.01 8.14-7.33 13.52-7.33 5.76 0 10.7 4.71 10.7 10.55 0 3.42-.9 7.3-1.72 10.44l-4.04 18.38h-10.02l4.03-18.75c.52-2.32 1.27-5.9 1.27-8.21a4.52 4.52 0 0 0-4.7-4.64c-6.94 0-8.67 8.07-9.94 13.3l-3.96 18.3h-10l4-18.75c.55-2.32 1.3-5.9 1.3-8.21a4.54 4.54 0 0 0-4.72-4.64c-6.78 0-8.68 8.14-9.94 13.3l-3.95 18.3h-10.03l7.05-34.22M511 79.13a16.35 16.35 0 0 0-6.7-1.4c-2.97 0-6.7.81-6.7 3.86 0 4.87 13 6.65 13 16.07 0 10.01-8.76 13-17.37 13-4 0-8.06-.59-11.7-2.3l2.16-8c2.83 1.57 5.66 2.98 9.54 2.98 3.38 0 6.9-1.12 6.9-4.25 0-6.21-13.02-6.8-13.02-16.43 0-9.06 8.75-12.27 16.7-12.27 3.64 0 7.39.66 9.36 1.2l-2.18 7.54m6.41-7.85h7.25l1.7-7.9 10.77-3.53-2.47 11.43h8.98l-1.58 7.32h-8.99l-3.63 16.82c-.24.9-.46 2.24-.46 3.74 0 2.32 1.59 3.73 3.82 3.73 1.78 0 3.58-.37 4.85-.87l-1.7 7.74c-1.75.39-3.68.9-5.38.9-6.8 0-11.59-2.66-11.59-10.08 0-2.98.6-5.9 1.24-8.96l2.85-13.02h-7.24l1.57-7.32m67.89 5.15c.32-1.64.6-3.35.9-5.15h9.56l-1.36 7.26h.18c1.78-4.2 6.71-8.15 11.35-8.15 1.28 0 2.61.08 3.8.37l-2.1 9.8a12.3 12.3 0 0 0-3.8-.61c-7.1 0-10.54 6.34-11.82 12.56l-3.56 17.25H578.4l6.88-33.33m-6.95 8.6c0-9.8-6.27-14.64-15.77-14.64-12.63 0-21.9 11.51-21.9 23.47 0 11.43 7.5 16.8 18.53 16.8 4.11 0 8.38-.97 12.27-2.15l1.25-7.93a27.87 27.87 0 0 1-11.79 2.76c-6.43 0-10.15-2.26-10.62-8.32h-.01c-.03-.35-.06-.7-.06-1.07l.01-.21v-.13c.05-2.61.62-5.2 1.64-7.6 1.9-4.92 4.63-8.29 10.54-8.29 4.2 0 6.35 2.31 6.35 6.42 0 .9-.1 1.72-.23 2.62h-13.68a22.38 22.38 0 0 0-1.08 6.85h23.59c.6-2.82.96-5.66.96-8.58m43.89-8.08h1.95c1.27 0 2.1-.29 2.1-1.59 0-1.15-1.02-1.5-2.1-1.5h-1.95zm-1.67-4.39h3.89c2.35 0 3.47.94 3.47 2.86 0 1.63-1.02 2.81-2.6 2.81l2.88 4.46h-1.74l-2.85-4.46h-1.38v4.46h-1.67zM623.9 85c3.96 0 6.97-3.19 6.97-7.35 0-4.15-3-7.36-6.97-7.36-4.03 0-7.03 3.21-7.03 7.36 0 4.16 3 7.35 7.03 7.35m-.04-15.98a8.66 8.66 0 0 1 8.67 8.63 8.65 8.65 0 1 1-8.67-8.63" fill="#4c5056"/></svg>